<mxfile host="Electron" modified="2024-01-26T05:58:28.419Z" agent="Mozilla/5.0 (Windows NT 10.0; Win64; x64) AppleWebKit/537.36 (KHTML, like Gecko) draw.io/22.1.21 Chrome/120.0.6099.109 Electron/28.1.0 Safari/537.36" etag="D9tHoA9Ca5Ef3zieYMfP" version="22.1.21" type="device">
  <diagram name="Page-1" id="ryGtp6P1I9KAt4M1AO9u">
    <mxGraphModel dx="801" dy="308" grid="1" gridSize="10" guides="1" tooltips="1" connect="1" arrows="1" fold="1" page="1" pageScale="1" pageWidth="850" pageHeight="1100" math="0" shadow="0">
      <root>
        <mxCell id="0" />
        <mxCell id="1" parent="0" />
        <mxCell id="Qp9WblH9RVzn9ApGt10T-2" value="" style="edgeStyle=orthogonalEdgeStyle;rounded=0;orthogonalLoop=1;jettySize=auto;html=1;entryX=0.022;entryY=0.194;entryDx=0;entryDy=0;entryPerimeter=0;" parent="1" source="Qp9WblH9RVzn9ApGt10T-3" edge="1" target="Qp9WblH9RVzn9ApGt10T-4">
          <mxGeometry relative="1" as="geometry">
            <mxPoint x="230" y="80" as="targetPoint" />
          </mxGeometry>
        </mxCell>
        <mxCell id="Qp9WblH9RVzn9ApGt10T-3" value=".fif&lt;br&gt;MEG generated data" style="whiteSpace=wrap;html=1;shape=mxgraph.basic.document" parent="1" vertex="1">
          <mxGeometry x="90" y="50" width="90" height="60" as="geometry" />
        </mxCell>
        <mxCell id="Qp9WblH9RVzn9ApGt10T-4" value="Convert to .BIDS standardized format" style="whiteSpace=wrap;html=1;" parent="1" vertex="1">
          <mxGeometry x="240" y="50" width="120" height="150" as="geometry" />
        </mxCell>
        <mxCell id="NjELSpKqHxc-l-QflI-P-2" value="" style="edgeStyle=orthogonalEdgeStyle;rounded=0;orthogonalLoop=1;jettySize=auto;html=1;" edge="1" parent="1" source="NjELSpKqHxc-l-QflI-P-1" target="Qp9WblH9RVzn9ApGt10T-4">
          <mxGeometry relative="1" as="geometry">
            <Array as="points">
              <mxPoint x="220" y="160" />
              <mxPoint x="220" y="160" />
            </Array>
          </mxGeometry>
        </mxCell>
        <mxCell id="NjELSpKqHxc-l-QflI-P-1" value="meta-data&lt;br&gt;(machine type, parameters,...)" style="whiteSpace=wrap;html=1;shape=mxgraph.basic.document" vertex="1" parent="1">
          <mxGeometry x="90" y="120" width="90" height="80" as="geometry" />
        </mxCell>
      </root>
    </mxGraphModel>
  </diagram>
</mxfile>
